<mxfile host="app.diagrams.net" modified="2023-04-02T03:47:38.351Z" agent="Mozilla/5.0 (X11; Ubuntu; Linux x86_64; rv:109.0) Gecko/20100101 Firefox/111.0" version="21.1.1" etag="IJp1I_XtVD6QveVqDgzw" type="github">
  <diagram name="Page-1" id="bAQcmAK2PTEaTIUf94xJ">
    <mxGraphModel>
      <root>
        <mxCell id="0" />
        <mxCell id="1" parent="0" />
      </root>
    </mxGraphModel>
  </diagram>
</mxfile>
